<?xml version="1.0" encoding="utf-8"?>
<!-- Generator: Adobe Illustrator 19.0.0, SVG Export Plug-In . SVG Version: 6.00 Build 0)  -->
<svg version="1.1" id="Режим_изоляции"
	 xmlns="http://www.w3.org/2000/svg" xmlns:xlink="http://www.w3.org/1999/xlink" x="0px" y="0px" viewBox="0 0 373.2 306.4"
	 enable-background="new 0 0 373.2 306.4" xml:space="preserve">
<path fill="#231F20" d="M68.6,78.4c0,12.5,1.9,18.8,7.7,21.4c2.7,1.2,6.7,1.9,11.6,1.9h5.6v-9.3h-3.7c-6.4,0-9.7-1-11.2-5.2
	c-0.5-2.2-1-5.3-1-9.6V32.3h15.9v-8.9H77.6V7.7h-7.1c-0.1,3.7-0.5,7.9-1.2,10.3c-0.7,3.7-1.8,4.8-4.5,5.3c-1.2,0.5-4.7,0.8-6.4,0.8
	v8.2h10.3V78.4z"/>
<path fill="#231F20" d="M194.4,103c12.3,0,19.2-4.4,22.3-11.9c1.6-3.7,2.5-7.9,2.5-12.9v-2.9h-9.7v3.6c0,10.3-4.8,15.3-14.9,15.3
	c-11.4,0-16.2-6.2-16.2-18.5V65.4h40.8V49.6c0-16.3-7.4-27.4-24.6-27.4c-16.2,0-25.5,10.3-25.5,28.2V76
	C169.1,93.4,177,103,194.4,103 M178.4,50.1c0-13,5.3-19.3,16.2-19.3c10.8,0,15.2,6,15.2,18.5v7.9h-31.4V50.1z"/>
<path fill="#231F20" d="M25.2,123.9c-15.6,0-25.2,9-25.2,27.9v25.7c0,18.3,8.9,27.1,25.2,27.1c15.7,0,25.3-8.9,25.3-27.1v-25.7
	C50.5,133.1,40.9,123.9,25.2,123.9 M40.7,177.3c0,12-5.1,18.6-15.5,18.6c-10.4,0-15.3-6.7-15.3-18.6V152c0-13,5.1-19.4,15.3-19.4
	c10.4,0,15.5,6.4,15.5,19.4V177.3z"/>
<path fill="#231F20" d="M77.6,109.4h-7.1c-0.1,3.7-0.5,7.9-1.2,10.3c-0.7,3.7-1.8,4.8-4.5,5.3c-1.2,0.5-4.7,0.8-6.4,0.8v8.2h10.3
	v46.1c0,12.5,1.9,18.8,7.7,21.4c2.7,1.2,6.7,1.9,11.6,1.9h5.6v-9.3h-3.7c-6.4,0-9.7-1-11.2-5.2c-0.5-2.2-1-5.3-1-9.6V134h15.9v-8.9
	H77.6V109.4z"/>
<path fill="#231F20" d="M133.8,124c-9.9,0-15.9,5.6-18.5,14.8v-37.1h0V51.1c0-12.5,5.3-20.1,15.5-20.1c9.7,0,13.4,6,13.4,17.3v53.5
	h9.7V47c0-15.7-6.6-24.6-20.1-24.6c-9.9,0-15.9,5.6-18.5,14.8V0h-9.3v101.7h0v101.7h9.3v-50.7c0-12.5,5.3-20.1,15.5-20.1
	c9.7,0,13.4,6,13.4,17.3v53.5h0v101.7h9.7V203.4v-54.8C153.9,132.9,147.3,124,133.8,124"/>
<path fill="#231F20" d="M194.5,123.9c-16.2,0-25.5,10.3-25.5,28.2v25.6c0,17.4,7.9,27,25.3,27c12.3,0,19.2-4.4,22.3-11.9
	c1.6-3.7,2.5-7.9,2.5-12.9V177h-9.7v3.6c0,10.3-4.8,15.3-14.9,15.3c-11.4,0-16.2-6.2-16.2-18.5v-10.3h40.8v-15.9
	C219.2,135,211.8,123.9,194.5,123.9 M209.7,159h-31.4v-7.1c0-13,5.3-19.3,16.2-19.3c10.8,0,15.2,6,15.2,18.5V159z"/>
<path fill="#231F20" d="M194,225.9c-16.2,0-24.5,8.4-24.5,21.4v7.8h9.4v-7.4c0-8.8,5.5-13.8,15.1-13.8c9.7,0,14.1,4.5,14.1,12.6v0.8
	c0,6.8-4.9,9-15.3,12.7c-9.3,3.4-13.6,4.9-17.5,8.2c-4.4,3.4-7.5,8.9-7.5,16.6v2.5c0,12.3,6.8,19,19.3,19c10.7,0,17.9-6,21.2-16.2
	l1.5,15.1h7.5v-58C217.3,233.7,210.3,225.9,194,225.9 M208.1,274.8c0,8.8-2.7,16-8.1,20.3c-2.6,2.2-5.8,3.1-9.6,3.1
	c-7.9,0-12.6-4.5-12.6-12v-1.2c0-5.5,1.8-9.6,4.5-11.9c2.9-2.7,6-4.7,13.1-7c7-2.6,10.8-4.2,12.6-7.5V274.8z"/>
<path fill="#231F20" d="M324.2,225.6c-16.2,0-25.5,10.3-25.5,28.2v25.6c0,17.4,7.9,27,25.3,27c12.3,0,19.2-4.4,22.3-11.9
	c1.6-3.7,2.5-7.9,2.5-12.9v-2.9h-9.7v3.6c0,10.3-4.8,15.3-14.9,15.3c-11.4,0-16.2-6.2-16.2-18.5v-10.3h40.8V253
	C348.8,236.7,341.4,225.6,324.2,225.6 M339.4,260.7H308v-7.1c0-13,5.3-19.3,16.2-19.3s15.2,6,15.2,18.5V260.7z"/>
<rect x="363.6" y="203.5" fill="#231F20" width="9.6" height="101.7"/>
<path fill="#231F20" d="M262.2,225.8c-9.7,0-15.9,4.8-18.8,13.8v-36.1h0v-47c0-14.9,3.7-21.4,17.4-21.4h3.7v-10.4H262
	c-12,0-17.5,3.8-19.2,15.6l-1.6-15.2h-7.4v78.3v101.7h0.3h6.7h1.1l1.1-14c2.3,9.3,8.2,15.2,18.6,15.2c14.6,0,23.3-9.7,23.3-29.7v-22
	C284.9,234.8,276.7,225.8,262.2,225.8 M275,276.6c0,14-5.2,20.9-15.9,20.9c-10.4,0-15.7-7.8-15.7-20.7v-22.2
	c0-12.3,5.6-20.5,16.3-20.5c10.3,0,15.3,6.7,15.3,20.5V276.6z"/>
</svg>
