<?xml version="1.0" encoding="UTF-8"?><!DOCTYPE svg PUBLIC "-//W3C//DTD SVG 1.1//EN" "http://www.w3.org/Graphics/SVG/1.1/DTD/svg11.dtd"><svg xmlns="http://www.w3.org/2000/svg"><symbol id="icon-facebook" viewBox="-259 374.4 22.4 48.3">
    <path d="M-236.6 390h-7.6v-5c0-1.9 1.2-2.3 2.1-2.3h5.4v-8.3h-7.4c-8.2 0-10.1 6.2-10.1 10.1v5.5h-4.8v8.5h4.8v24.1h10v-24.1h6.8l.8-8.5z"/>
</symbol><symbol id="icon-instagram" viewBox="-273.6 373.1 49.6 49.6">
    <path d="M-248.8 385c-7 0-12.8 5.7-12.8 12.8 0 7.1 5.7 12.8 12.8 12.8s12.8-5.8 12.8-12.8-5.8-12.8-12.8-12.8zm0 21c-4.5 0-8.2-3.7-8.2-8.2s3.7-8.2 8.2-8.2 8.2 3.7 8.2 8.2-3.7 8.2-8.2 8.2z"/>
    <circle cx="-235.5" cy="384.7" r="2.9"/>
    <path d="M-228 377.2c-2.6-2.7-6.3-4.1-10.5-4.1h-20.6c-8.7 0-14.5 5.8-14.5 14.5v20.5c0 4.3 1.4 8 4.2 10.7 2.7 2.6 6.3 3.9 10.4 3.9h20.4c4.3 0 7.9-1.4 10.5-3.9 2.7-2.6 4.1-6.3 4.1-10.6v-20.6c0-4.2-1.4-7.8-4-10.4zm-.4 31c0 3.1-1.1 5.6-2.9 7.3-1.8 1.7-4.3 2.6-7.3 2.6H-259c-3 0-5.5-.9-7.3-2.6-1.8-1.8-2.7-4.3-2.7-7.4v-20.5c0-3 .9-5.5 2.7-7.3 1.7-1.7 4.3-2.6 7.3-2.6h20.6c3 0 5.5.9 7.3 2.7 1.7 1.8 2.7 4.3 2.7 7.2v20.6z"/>
</symbol></svg>